<svg width="1104" height="250" viewBox="0 0 1104 250" fill="none" xmlns="http://www.w3.org/2000/svg">
<g clip-path="url(#clip0_439_554)">
<path d="M75 229.9C69.4 229.9 63.8 229.3 58.2 228.1C52.6 227.1 47.4 225.2 42.6 222.4C37.8 219.4 33.5 215.8 29.7 211.6C25.9 207.2 22.9 202.5 20.7 197.5C18.5 192.3 17 186.9 16.2 181.3C15.4 175.7 15 170.1 15 164.5V70C15 64.4 15.4 58.8 16.2 53.2C17 47.6 18.5 42.3 20.7 37.3C22.9 32.1 25.9 27.4 29.7 23.2C33.5 18.8 37.8 15.2 42.6 12.4C47.4 9.39999 52.6 7.39998 58.2 6.39999C63.8 5.19999 69.4 4.59999 75 4.59999C80.6 4.59999 86.2 5.19999 91.8 6.39999C97.4 7.39998 102.6 9.39999 107.4 12.4C112.2 15.2 116.5 18.8 120.3 23.2C124.1 27.4 127.1 32.1 129.3 37.3C131.5 42.3 133 47.6 133.8 53.2C134.6 58.8 135 64.4 135 70V164.5C135 170.1 134.6 175.7 133.8 181.3C133 186.9 131.5 192.3 129.3 197.5C127.1 202.5 124.1 207.2 120.3 211.6C116.5 215.8 112.2 219.4 107.4 222.4C102.6 225.2 97.4 227.1 91.8 228.1C86.2 229.3 80.6 229.9 75 229.9ZM75 198.4C77.6 198.4 80.1 198 82.5 197.2C84.9 196.2 87 194.8 88.8 193C90.8 191.2 92.3 189.2 93.3 187C94.5 184.6 95.4 182.2 96 179.8C96.8 177.2 97.3 174.6 97.5 172C97.7 169.4 97.8 166.9 97.8 164.5V70C97.8 67.6 97.7 65.1 97.5 62.5C97.3 59.9 96.8 57.4 96 55C95.4 52.4 94.5 50 93.3 47.8C92.3 45.4 90.8 43.3 88.8 41.5C87 39.7 84.9 38.4 82.5 37.6C80.1 36.6 77.6 36.1 75 36.1C72.4 36.1 69.9 36.6 67.5 37.6C65.1 38.4 62.9 39.7 60.9 41.5C59.1 43.3 57.6 45.4 56.4 47.8C55.4 50 54.5 52.4 53.7 55C53.1 57.4 52.7 59.9 52.5 62.5C52.3 65.1 52.2 67.6 52.2 70V164.5C52.2 166.9 52.3 169.4 52.5 172C52.7 174.6 53.1 177.2 53.7 179.8C54.5 182.2 55.4 184.6 56.4 187C57.6 189.2 59.1 191.2 60.9 193C62.9 194.8 65.1 196.2 67.5 197.2C69.9 198 72.4 198.4 75 198.4ZM173.7 227.5L130.5 7H168.3L192 154C192.6 157 193.1 160 193.5 163C194.1 165.8 194.6 168.7 195 171.7C195.4 168.7 195.8 165.8 196.2 163C196.8 160 197.4 157 198 154L221.7 7H259.5L216.3 227.5H173.7ZM259.8 227.5V7H372.6V38.5H297V97H355.5V128.5H297V196H372.6V227.5H259.8ZM377.4 227.5V7H436.2C442 7 447.7 7.69999 453.3 9.09999C458.9 10.3 464.1 12.4 468.9 15.4C473.7 18.4 477.8 22.2 481.2 26.8C484.8 31.4 487.6 36.4 489.6 41.8C491.8 47 493.2 52.5 493.8 58.3C494.6 63.9 495 69.5 495 75.1C495 81.5 494.5 87.9 493.5 94.3C492.5 100.7 490.6 106.8 487.8 112.6C485.2 118.4 481.5 123.6 476.7 128.2C472.1 132.8 466.9 136.3 461.1 138.7L499.8 227.5H460.2L423.3 143.2H414.6V227.5H377.4ZM436.2 111.7C439 111.7 441.6 111.1 444 109.9C446.4 108.7 448.4 107.1 450 105.1C451.8 103.1 453.2 100.9 454.2 98.5C455.2 95.9 455.9 93.4 456.3 91C456.9 88.4 457.3 85.8 457.5 83.2C457.7 80.4 457.8 77.7 457.8 75.1C457.8 72.5 457.7 69.9 457.5 67.3C457.3 64.5 456.9 61.9 456.3 59.5C455.9 56.9 455.2 54.4 454.2 52C453.2 49.4 451.8 47.1 450 45.1C448.4 42.9 446.4 41.3 444 40.3C441.6 39.1 439 38.5 436.2 38.5H414.6V111.7H436.2Z" fill="#367DCB"/>
<g clip-path="url(#clip1_439_554)">
<path d="M588.449 220.198L539.495 43.0892L569.374 34.8303L589.755 108.565L622.527 99.5071L602.146 25.772L632.025 17.5131L680.98 194.622L651.1 202.881L629.52 124.808L596.749 133.867L618.329 211.939L588.449 220.198Z" fill="#367DCB"/>
</g>
<path d="M733.671 227.5V7H846.471V38.5H770.871V97H829.371V128.5H770.871V196H846.471V227.5H733.671ZM844.371 227.5L887.571 7H930.171L973.371 227.5H935.571L928.071 181H889.671L882.171 227.5H844.371ZM922.971 149.5L911.871 80.5C911.271 77.5 910.671 74.6 910.071 71.8C909.671 68.8 909.271 65.8 908.871 62.8C908.471 65.8 907.971 68.8 907.371 71.8C906.971 74.6 906.471 77.5 905.871 80.5L894.771 149.5H922.971ZM971.271 227.5V7H1017.17C1023.57 7 1029.87 7.5 1036.07 8.49999C1042.27 9.49999 1048.17 11.4 1053.77 14.2C1059.57 16.8 1064.77 20.3 1069.37 24.7C1074.17 29.1 1078.07 34.1 1081.07 39.7C1084.07 45.3 1086.07 51.3 1087.07 57.7C1088.27 63.9 1088.87 70.1 1088.87 76.3V158.2C1088.87 164.4 1088.27 170.7 1087.07 177.1C1086.07 183.3 1084.07 189.2 1081.07 194.8C1078.07 200.4 1074.17 205.4 1069.37 209.8C1064.77 214.2 1059.57 217.8 1053.77 220.6C1048.17 223.2 1042.27 225 1036.07 226C1029.87 227 1023.57 227.5 1017.17 227.5H971.271ZM1008.47 196H1017.17C1020.37 196 1023.57 195.7 1026.77 195.1C1029.97 194.3 1032.97 193.1 1035.77 191.5C1038.57 189.9 1041.07 187.9 1043.27 185.5C1045.47 182.9 1047.17 180.1 1048.37 177.1C1049.77 174.1 1050.67 171 1051.07 167.8C1051.47 164.6 1051.67 161.4 1051.67 158.2V76.3C1051.67 73.1 1051.47 69.9 1051.07 66.7C1050.67 63.5 1049.77 60.4 1048.37 57.4C1047.17 54.4 1045.47 51.7 1043.27 49.3C1041.07 46.7 1038.57 44.6 1035.77 43C1032.97 41.4 1029.97 40.3 1026.77 39.7C1023.57 38.9 1020.37 38.5 1017.17 38.5H1008.47V196Z" fill="#367DCB"/>
</g>
<defs>
<clipPath id="clip0_439_554">
<rect width="1103.87" height="250" fill="white"/>
</clipPath>
<clipPath id="clip1_439_554">
<rect width="125" height="313" fill="white" transform="translate(510 -9.19238) rotate(-15.4513)"/>
</clipPath>
</defs>
</svg>
