<svg width="750" height="250" viewBox="0 0 750 250" fill="none" xmlns="http://www.w3.org/2000/svg">
<g clip-path="url(#clip0_439_512)">
<path d="M74.4 229.9C68.8 229.9 63.2 229.3 57.6 228.1C52 227.1 46.8 225.2 42 222.4C37.2 219.4 33 215.8 29.4 211.6C25.8 207.2 22.9 202.4 20.7 197.2C18.5 192 17 186.7 16.2 181.3C15.4 175.7 15 170.1 15 164.5V70C15 64.4 15.4 58.9 16.2 53.5C17 47.9 18.5 42.5 20.7 37.3C22.9 32.1 25.8 27.4 29.4 23.2C33 18.8 37.2 15.2 42 12.4C46.8 9.39999 52 7.39998 57.6 6.39999C63.2 5.19999 68.8 4.59999 74.4 4.59999C79.6 4.59999 84.8 5.09999 90 6.09999C95.2 7.09999 100.1 8.79999 104.7 11.2C109.3 13.6 113.4 16.7 117 20.5C120.8 24.3 123.9 28.6 126.3 33.4C128.7 38 130.4 42.9 131.4 48.1C132.6 53.3 133.2 58.5 133.2 63.7H96C96 60.5 95.6 57.3 94.8 54.1C94.2 50.7 93 47.6 91.2 44.8C89.4 42 86.9 39.9 83.7 38.5C80.7 36.9 77.6 36.1 74.4 36.1C71.8 36.1 69.3 36.6 66.9 37.6C64.5 38.4 62.4 39.8 60.6 41.8C58.8 43.6 57.3 45.7 56.1 48.1C55.1 50.3 54.3 52.6 53.7 55C53.1 57.4 52.7 59.9 52.5 62.5C52.3 65.1 52.2 67.6 52.2 70V164.5C52.2 166.9 52.3 169.4 52.5 172C52.7 174.6 53.1 177.1 53.7 179.5C54.3 181.9 55.1 184.3 56.1 186.7C57.3 188.9 58.8 191 60.6 193C62.4 194.8 64.5 196.2 66.9 197.2C69.3 198 71.8 198.4 74.4 198.4C77.6 198.4 80.7 197.7 83.7 196.3C86.9 194.7 89.4 192.5 91.2 189.7C93 186.9 94.2 183.9 94.8 180.7C95.6 177.3 96 174 96 170.8H133.2C133.2 176 132.6 181.2 131.4 186.4C130.4 191.6 128.7 196.6 126.3 201.4C123.9 206 120.8 210.2 117 214C113.4 217.8 109.3 220.9 104.7 223.3C100.1 225.7 95.2 227.4 90 228.4C84.8 229.4 79.6 229.9 74.4 229.9ZM195 229.9C189.4 229.9 183.8 229.3 178.2 228.1C172.6 227.1 167.4 225.2 162.6 222.4C157.8 219.4 153.5 215.8 149.7 211.6C145.9 207.2 142.9 202.5 140.7 197.5C138.5 192.3 137 186.9 136.2 181.3C135.4 175.7 135 170.1 135 164.5V70C135 64.4 135.4 58.8 136.2 53.2C137 47.6 138.5 42.3 140.7 37.3C142.9 32.1 145.9 27.4 149.7 23.2C153.5 18.8 157.8 15.2 162.6 12.4C167.4 9.39999 172.6 7.39998 178.2 6.39999C183.8 5.19999 189.4 4.59999 195 4.59999C200.6 4.59999 206.2 5.19999 211.8 6.39999C217.4 7.39998 222.6 9.39999 227.4 12.4C232.2 15.2 236.5 18.8 240.3 23.2C244.1 27.4 247.1 32.1 249.3 37.3C251.5 42.3 253 47.6 253.8 53.2C254.6 58.8 255 64.4 255 70V164.5C255 170.1 254.6 175.7 253.8 181.3C253 186.9 251.5 192.3 249.3 197.5C247.1 202.5 244.1 207.2 240.3 211.6C236.5 215.8 232.2 219.4 227.4 222.4C222.6 225.2 217.4 227.1 211.8 228.1C206.2 229.3 200.6 229.9 195 229.9ZM195 198.4C197.6 198.4 200.1 198 202.5 197.2C204.9 196.2 207 194.8 208.8 193C210.8 191.2 212.3 189.2 213.3 187C214.5 184.6 215.4 182.2 216 179.8C216.8 177.2 217.3 174.6 217.5 172C217.7 169.4 217.8 166.9 217.8 164.5V70C217.8 67.6 217.7 65.1 217.5 62.5C217.3 59.9 216.8 57.4 216 55C215.4 52.4 214.5 50 213.3 47.8C212.3 45.4 210.8 43.3 208.8 41.5C207 39.7 204.9 38.4 202.5 37.6C200.1 36.6 197.6 36.1 195 36.1C192.4 36.1 189.9 36.6 187.5 37.6C185.1 38.4 182.9 39.7 180.9 41.5C179.1 43.3 177.6 45.4 176.4 47.8C175.4 50 174.5 52.4 173.7 55C173.1 57.4 172.7 59.9 172.5 62.5C172.3 65.1 172.2 67.6 172.2 70V164.5C172.2 166.9 172.3 169.4 172.5 172C172.7 174.6 173.1 177.2 173.7 179.8C174.5 182.2 175.4 184.6 176.4 187C177.6 189.2 179.1 191.2 180.9 193C182.9 194.8 185.1 196.2 187.5 197.2C189.9 198 192.4 198.4 195 198.4ZM257.4 227.5V7H303.3C309.7 7 316 7.5 322.2 8.49999C328.4 9.49999 334.3 11.4 339.9 14.2C345.7 16.8 350.9 20.3 355.5 24.7C360.3 29.1 364.2 34.1 367.2 39.7C370.2 45.3 372.2 51.3 373.2 57.7C374.4 63.9 375 70.1 375 76.3V158.2C375 164.4 374.4 170.7 373.2 177.1C372.2 183.3 370.2 189.2 367.2 194.8C364.2 200.4 360.3 205.4 355.5 209.8C350.9 214.2 345.7 217.8 339.9 220.6C334.3 223.2 328.4 225 322.2 226C316 227 309.7 227.5 303.3 227.5H257.4ZM294.6 196H303.3C306.5 196 309.7 195.7 312.9 195.1C316.1 194.3 319.1 193.1 321.9 191.5C324.7 189.9 327.2 187.9 329.4 185.5C331.6 182.9 333.3 180.1 334.5 177.1C335.9 174.1 336.8 171 337.2 167.8C337.6 164.6 337.8 161.4 337.8 158.2V76.3C337.8 73.1 337.6 69.9 337.2 66.7C336.8 63.5 335.9 60.4 334.5 57.4C333.3 54.4 331.6 51.7 329.4 49.3C327.2 46.7 324.7 44.6 321.9 43C319.1 41.4 316.1 40.3 312.9 39.7C309.7 38.9 306.5 38.5 303.3 38.5H294.6V196ZM382.5 227.5V196H416.4V38.5H382.5V7H487.5V38.5H453.6V196H487.5V227.5H382.5ZM497.4 227.5V7H530.4L581.4 158.5C580.4 153.3 579.5 148.1 578.7 142.9C577.9 137.5 577.2 132.2 576.6 127C576.2 121.8 575.9 116.6 575.7 111.4C575.5 106 575.4 100.6 575.4 95.2V7H612.6V227.5H579.6L528.6 76C529.6 81.2 530.5 86.5 531.3 91.9C532.1 97.1 532.7 102.3 533.1 107.5C533.7 112.7 534.1 118 534.3 123.4C534.5 128.6 534.6 133.9 534.6 139.3V227.5H497.4ZM659.1 229.9C654.1 229.9 649.2 229.1 644.4 227.5C639.8 225.7 635.7 223.1 632.1 219.7C628.7 216.1 625.8 212.1 623.4 207.7C621.2 203.1 619.4 198.5 618 193.9C616.8 189.1 616 184.2 615.6 179.2C615.2 174.2 615 169.3 615 164.5V70C615 64.4 615.4 58.9 616.2 53.5C617 47.9 618.5 42.5 620.7 37.3C622.9 32.1 625.8 27.4 629.4 23.2C633 18.8 637.2 15.2 642 12.4C646.8 9.39999 652 7.39998 657.6 6.39999C663.2 5.19999 668.8 4.59999 674.4 4.59999C679.6 4.59999 684.8 5.09999 690 6.09999C695.2 7.09999 700.1 8.79999 704.7 11.2C709.3 13.6 713.4 16.7 717 20.5C720.8 24.3 723.9 28.6 726.3 33.4C728.7 38 730.4 42.9 731.4 48.1C732.6 53.3 733.2 58.5 733.2 63.7H696C696 60.5 695.6 57.3 694.8 54.1C694.2 50.7 693 47.6 691.2 44.8C689.4 42 686.9 39.9 683.7 38.5C680.7 36.9 677.6 36.1 674.4 36.1C671.8 36.1 669.3 36.6 666.9 37.6C664.5 38.4 662.4 39.8 660.6 41.8C658.8 43.6 657.3 45.7 656.1 48.1C655.1 50.3 654.3 52.6 653.7 55C653.1 57.4 652.7 59.9 652.5 62.5C652.3 65.1 652.2 67.6 652.2 70V164.5C652.2 168.3 652.4 172.1 652.8 175.9C653.4 179.7 654.6 183.3 656.4 186.7C658.2 190.1 660.7 192.9 663.9 195.1C667.3 197.3 670.9 198.4 674.7 198.4C677.1 198.4 679.5 197.9 681.9 196.9C684.3 195.9 686.3 194.5 687.9 192.7C689.5 190.7 690.8 188.6 691.8 186.4C692.8 184 693.6 181.6 694.2 179.2C694.8 176.8 695.1 174.4 695.1 172C695.3 169.4 695.4 166.9 695.4 164.5V136.6H675V105.1H732.6V227.5H698.7V193.3C697.5 198.1 695.8 202.8 693.6 207.4C691.6 211.8 688.9 215.8 685.5 219.4C682.1 222.8 678.1 225.4 673.5 227.2C668.9 229 664.1 229.9 659.1 229.9Z" fill="#367DCB"/>
</g>
<defs>
<clipPath id="clip0_439_512">
<rect width="750" height="250" fill="white"/>
</clipPath>
</defs>
</svg>
