<svg width="1983" height="1983" viewBox="0 0 1983 1983" fill="none" xmlns="http://www.w3.org/2000/svg">
<path d="M696.282 1154.7C628.003 1105.12 628.002 460.66 696.282 396.922C764.561 333.184 1498.56 326.102 1566.84 396.922C1635.12 467.742 1652.19 1098.04 1566.84 1154.7C1481.49 1211.35 764.561 1204.27 696.282 1154.7Z" stroke="#5E7181" stroke-width="119.458" stroke-linecap="round"/>
<path d="M867.78 706.493C883.537 748.514 867.78 769.523 888.79 790.531C909.799 811.538 988.584 811.542 1004.34 790.531C1020.1 769.52 1004.34 575.185 951.818 575.185C899.294 575.185 374.061 517.406 305.781 575.185C237.5 632.964 194.525 1446.68 262.805 1499.2C331.086 1551.72 1054.04 1541.01 1636.57 1541.01C1657.08 1541.01 1672.41 1585.34 1672.41 1397.66C1672.41 1360.89 1516.96 1379.74 1487.25 1379.74H1343.9H1051.23C1051.23 1379.74 494.865 1396.42 458.098 1343.9C421.332 1291.38 379.313 811.54 458.098 706.493C536.883 601.447 852.023 664.473 867.78 706.493Z" fill="#5E7181"/>
</svg>
