<svg width="1969" height="997" viewBox="0 0 1969 997" fill="none" xmlns="http://www.w3.org/2000/svg">
<path d="M464.296 154.945C474.981 183.438 464.296 197.684 478.542 211.929C492.788 226.173 546.21 226.176 556.894 211.929C567.579 197.681 556.894 65.9089 521.28 65.9089C485.665 65.9089 129.52 26.7306 83.2206 65.9089C36.9216 105.087 36.9216 571.638 83.2206 607.25C129.52 642.862 486.88 621.891 881.877 621.891H928.176C953.106 621.891 948.322 532.854 928.176 532.854H899.684H839.139C839.139 532.854 211.433 550.265 186.503 514.652C161.573 479.04 133.081 226.174 186.503 154.945C239.925 83.7161 453.612 126.452 464.296 154.945Z" fill="#5E7181"/>
<path d="M449.966 882.733C434.908 872.061 434.908 733.316 449.966 719.594C465.024 705.872 626.899 704.347 641.957 719.594C657.016 734.84 660.78 870.536 641.957 882.733C623.135 894.931 465.024 893.406 449.966 882.733Z" stroke="#5E7181" stroke-width="37.773" stroke-linecap="round"/>
<path d="M832.401 766.166L783.698 878.521H761.516L712.572 766.166H732.343L772.607 864.657L812.63 766.166H832.401ZM870.071 828.13C871.277 840.025 875.616 849.508 883.091 856.58C890.565 863.653 900.29 867.189 912.264 867.189C920.703 867.189 928.217 865.461 934.808 862.005C941.398 858.549 946.34 854.25 949.636 849.106L961.209 857.063C955.583 864.939 948.872 870.966 941.076 875.145C933.281 879.244 923.677 881.294 912.264 881.294C903.585 881.294 895.628 879.847 888.395 876.954C881.162 874.06 874.893 870.042 869.589 864.898C864.365 859.675 860.306 853.486 857.413 846.333C854.52 839.181 853.073 831.224 853.073 822.464C853.073 813.945 854.359 806.109 856.931 798.956C859.583 791.723 863.36 785.495 868.263 780.271C873.246 774.967 879.273 770.868 886.346 767.975C893.418 765.001 901.334 763.514 910.094 763.514C919.658 763.514 928.017 765.121 935.169 768.336C942.322 771.551 948.269 776.011 953.011 781.717C957.833 787.343 961.369 794.094 963.62 801.97C965.95 809.846 967.116 818.566 967.116 828.13H870.071ZM949.636 814.025C947.787 801.729 943.327 792.567 936.254 786.54C929.182 780.512 920.462 777.498 910.094 777.498C904.79 777.498 899.888 778.382 895.387 780.15C890.886 781.838 886.908 784.289 883.452 787.504C879.997 790.719 877.103 794.617 874.773 799.198C872.442 803.698 870.955 808.641 870.312 814.025H949.636ZM1097.01 781.959C1091.06 778.985 1083.99 777.498 1075.79 777.498C1069.04 777.498 1063.01 778.945 1057.71 781.838C1052.4 784.731 1047.9 788.549 1044.21 793.29C1040.51 797.952 1037.66 803.337 1035.65 809.444C1033.72 815.472 1032.75 821.701 1032.75 828.13V864.416H1058.19V878.521H990.802V864.416H1016.24V780.271H990.802V766.166H1032.75V794.375C1040.31 773.801 1054.65 763.514 1075.79 763.514C1081.5 763.514 1086.44 763.876 1090.62 764.599C1094.88 765.322 1098.82 766.608 1102.43 768.457L1097.01 781.959ZM1234.5 878.521H1217.86V809.203C1217.86 799.157 1215.69 791.362 1211.35 785.816C1207.01 780.271 1199.98 777.498 1190.25 777.498C1184.14 777.498 1178.6 778.905 1173.62 781.717C1168.71 784.53 1164.54 788.308 1161.08 793.049C1157.62 797.711 1154.97 803.095 1153.12 809.203C1151.35 815.231 1150.47 821.54 1150.47 828.13V878.521H1133.95V721.2H1150.47V794.375C1158.43 773.801 1172.61 763.514 1193.03 763.514C1220.67 763.514 1234.5 778.744 1234.5 809.203V878.521ZM1281.81 828.13C1283.02 840.025 1287.36 849.508 1294.83 856.58C1302.3 863.653 1312.03 867.189 1324 867.189C1332.44 867.189 1339.96 865.461 1346.55 862.005C1353.14 858.549 1358.08 854.25 1361.37 849.106L1372.95 857.063C1367.32 864.939 1360.61 870.966 1352.81 875.145C1345.02 879.244 1335.42 881.294 1324 881.294C1315.32 881.294 1307.37 879.847 1300.13 876.954C1292.9 874.06 1286.63 870.042 1281.33 864.898C1276.1 859.675 1272.04 853.486 1269.15 846.333C1266.26 839.181 1264.81 831.224 1264.81 822.464C1264.81 813.945 1266.1 806.109 1268.67 798.956C1271.32 791.723 1275.1 785.495 1280 780.271C1284.98 774.967 1291.01 770.868 1298.08 767.975C1305.16 765.001 1313.07 763.514 1321.83 763.514C1331.4 763.514 1339.76 765.121 1346.91 768.336C1354.06 771.551 1360.01 776.011 1364.75 781.717C1369.57 787.343 1373.11 794.094 1375.36 801.97C1377.69 809.846 1378.85 818.566 1378.85 828.13H1281.81ZM1361.37 814.025C1359.53 801.729 1355.07 792.567 1347.99 786.54C1340.92 780.512 1332.2 777.498 1321.83 777.498C1316.53 777.498 1311.63 778.382 1307.13 780.15C1302.63 781.838 1298.65 784.289 1295.19 787.504C1291.74 790.719 1288.84 794.617 1286.51 799.198C1284.18 803.698 1282.69 808.641 1282.05 814.025H1361.37ZM1402.3 848.142C1402.3 841.069 1404.07 835.162 1407.6 830.421C1411.14 825.598 1415.76 821.821 1421.47 819.089C1427.25 816.276 1433.84 814.267 1441.24 813.061C1448.71 811.775 1456.31 811.132 1464.02 811.132C1467 811.132 1469.65 811.172 1471.98 811.253C1474.39 811.333 1476.64 811.454 1478.73 811.614C1480.9 811.775 1483.07 811.976 1485.24 812.217C1487.41 812.458 1489.78 812.74 1492.35 813.061V804.984C1492.35 799.519 1491.15 795.018 1488.74 791.482C1486.4 787.946 1483.51 785.173 1480.06 783.164C1476.6 781.075 1472.98 779.628 1469.21 778.824C1465.43 777.94 1462.21 777.498 1459.56 777.498C1451.2 777.498 1443.49 778.623 1436.42 780.874C1429.34 783.124 1422.75 786.138 1416.64 789.915L1409.17 777.498C1415.92 773.399 1423.48 770.064 1431.83 767.492C1440.27 764.84 1449.52 763.514 1459.56 763.514C1465.67 763.514 1471.66 764.318 1477.52 765.925C1483.47 767.452 1488.78 769.863 1493.44 773.158C1498.18 776.373 1501.96 780.633 1504.77 785.937C1507.58 791.241 1508.99 797.59 1508.99 804.984V878.521H1492.35V859.715C1489.46 863.331 1486.16 866.506 1482.47 869.238C1478.85 871.971 1475.03 874.221 1471.01 875.989C1467 877.677 1462.98 878.963 1458.96 879.847C1454.94 880.811 1451.12 881.294 1447.51 881.294C1432.64 881.294 1421.39 878.441 1413.75 872.734C1406.12 867.028 1402.3 858.831 1402.3 848.142ZM1447.51 867.189C1454.42 867.189 1460.61 866.184 1466.07 864.175C1471.62 862.086 1476.32 859.514 1480.18 856.46C1484.03 853.406 1487.01 850.151 1489.1 846.695C1491.27 843.239 1492.35 840.105 1492.35 837.292V826.683C1486.97 825.88 1481.78 825.438 1476.8 825.357C1471.9 825.277 1467.64 825.237 1464.02 825.237C1458.07 825.237 1452.33 825.639 1446.78 826.442C1441.32 827.246 1436.54 828.572 1432.44 830.421C1428.34 832.189 1425.04 834.519 1422.55 837.413C1420.06 840.306 1418.81 843.882 1418.81 848.142C1418.81 852.883 1421.11 857.264 1425.69 861.282C1430.35 865.22 1437.62 867.189 1447.51 867.189ZM1646.23 878.521H1629.6V868.153C1624.86 872.413 1619.63 875.668 1613.93 877.918C1608.3 880.168 1602.51 881.294 1596.57 881.294C1587.65 881.294 1579.65 879.847 1572.58 876.954C1565.5 874.06 1559.52 870.042 1554.61 864.898C1549.79 859.675 1546.06 853.446 1543.4 846.213C1540.83 838.98 1539.55 831.064 1539.55 822.464C1539.55 813.945 1540.83 806.069 1543.4 798.836C1546.06 791.522 1549.79 785.294 1554.61 780.15C1559.52 774.926 1565.5 770.868 1572.58 767.975C1579.65 765.001 1587.65 763.514 1596.57 763.514C1602.51 763.514 1608.3 764.599 1613.93 766.769C1619.63 768.859 1624.86 772.033 1629.6 776.293V735.305H1607.18V721.2H1646.23V878.521ZM1629.6 792.326C1624.86 787.102 1619.67 783.325 1614.05 780.994C1608.5 778.664 1602.59 777.498 1596.33 777.498C1589.74 777.498 1583.91 778.664 1578.85 780.994C1573.86 783.325 1569.68 786.499 1566.31 790.518C1562.93 794.536 1560.36 799.278 1558.59 804.743C1556.91 810.128 1556.06 816.035 1556.06 822.464C1556.06 828.894 1556.91 834.841 1558.59 840.306C1560.36 845.691 1562.93 850.392 1566.31 854.41C1569.68 858.429 1573.86 861.603 1578.85 863.934C1583.91 866.265 1589.74 867.43 1596.33 867.43C1609.02 867.43 1620.11 862.407 1629.6 852.361V792.326Z" fill="black"/>
<path d="M639.553 382.44C639.553 398.959 636.901 413.962 631.597 427.45C626.444 440.939 618.942 452.532 609.091 462.232C599.392 471.779 587.723 479.281 574.083 484.737C560.443 490.193 545.212 492.921 528.39 492.921C511.871 492.921 496.792 490.193 483.152 484.737C469.513 479.281 457.767 471.779 447.917 462.232C438.217 452.532 430.715 440.939 425.411 427.45C420.258 413.962 417.682 398.959 417.682 382.44C417.682 366.375 420.258 351.448 425.411 337.656C430.715 323.714 438.217 311.893 447.917 302.193C457.767 292.343 469.513 284.689 483.152 279.233C496.792 273.626 511.871 270.822 528.39 270.822C545.212 270.822 560.443 273.626 574.083 279.233C587.723 284.689 599.392 292.343 609.091 302.193C618.942 311.893 626.444 323.714 631.597 337.656C636.901 351.448 639.553 366.375 639.553 382.44ZM608.409 382.44C608.409 370.316 606.591 359.177 602.953 349.023C599.468 338.717 594.239 329.7 587.268 321.971C580.297 314.242 571.81 308.18 561.807 303.785C551.956 299.39 540.817 297.192 528.39 297.192C515.963 297.192 504.748 299.39 494.746 303.785C484.895 308.18 476.56 314.242 469.74 321.971C462.92 329.7 457.692 338.717 454.054 349.023C450.569 359.177 448.826 370.316 448.826 382.44C448.826 394.564 450.569 405.779 454.054 416.084C457.692 426.238 462.92 435.028 469.74 442.454C476.56 449.88 484.895 455.715 494.746 459.958C504.748 464.202 515.963 466.323 528.39 466.323C540.817 466.323 551.956 464.202 561.807 459.958C571.81 455.715 580.297 449.88 587.268 442.454C594.239 435.028 599.468 426.238 602.953 416.084C606.591 405.779 608.409 394.564 608.409 382.44ZM881.765 487.692H850.394V468.142C841.453 476.174 831.602 482.312 820.842 486.556C810.233 490.799 799.322 492.921 788.107 492.921C771.285 492.921 756.205 490.193 742.869 484.737C729.532 479.281 718.242 471.703 708.997 462.004C699.904 452.153 692.857 440.408 687.856 426.769C683.006 413.129 680.581 398.201 680.581 381.985C680.581 365.921 683.006 351.069 687.856 337.429C692.857 323.638 699.904 311.893 708.997 302.193C718.242 292.343 729.532 284.689 742.869 279.233C756.205 273.626 771.285 270.822 788.107 270.822C799.322 270.822 810.233 272.868 820.842 276.96C831.602 280.9 841.453 286.887 850.394 294.919V217.628H808.112V191.03H881.765V487.692ZM850.394 325.153C841.453 315.303 831.678 308.18 821.069 303.785C810.612 299.39 799.473 297.192 787.652 297.192C775.225 297.192 764.237 299.39 754.69 303.785C745.294 308.18 737.413 314.166 731.048 321.743C724.683 329.321 719.833 338.263 716.499 348.568C713.316 358.722 711.725 369.861 711.725 381.985C711.725 394.109 713.316 405.324 716.499 415.629C719.833 425.783 724.683 434.649 731.048 442.227C737.413 449.804 745.294 455.791 754.69 460.186C764.237 464.581 775.225 466.778 787.652 466.778C811.597 466.778 832.511 457.306 850.394 438.362V325.153ZM1066.92 233.541H1024.64V191.03H1066.92V233.541ZM1109.2 487.692H982.126V461.095H1030.09V302.421H982.126V275.823H1061.46V461.095H1109.2V487.692ZM1399.38 487.692H1368.01V356.979C1368.01 338.035 1363.92 323.335 1355.73 312.878C1347.55 302.421 1334.29 297.192 1315.95 297.192C1304.43 297.192 1293.98 299.844 1284.58 305.149C1275.34 310.453 1267.45 317.576 1260.94 326.517C1254.42 335.307 1249.42 345.461 1245.93 356.979C1242.6 368.345 1240.93 380.242 1240.93 392.669V487.692H1209.79V275.823H1240.93V329.018C1255.94 290.221 1282.69 270.822 1321.18 270.822C1373.31 270.822 1399.38 299.541 1399.38 356.979V487.692ZM1658.19 485.419C1658.19 499.968 1655.69 512.925 1650.69 524.292C1645.68 535.658 1638.64 545.282 1629.54 553.162C1620.6 561.043 1609.99 567.029 1597.72 571.121C1585.59 575.365 1572.03 577.486 1557.03 577.486C1535.96 577.486 1518 573.546 1503.15 565.665C1488.45 557.785 1475.72 546.418 1464.96 531.566L1486.78 514.744C1493.3 524.595 1502.7 532.854 1514.97 539.523C1527.25 546.191 1541.27 549.525 1557.03 549.525C1578.55 549.525 1595.52 544.069 1607.95 533.158C1620.53 522.397 1626.82 506.788 1626.82 486.328V463.595C1608.33 479.963 1587.26 488.147 1563.62 488.147C1530.43 488.147 1504.36 478.675 1485.42 459.731C1466.47 440.787 1457 414.872 1457 381.985C1457 365.921 1459.43 351.144 1464.28 337.656C1469.28 324.017 1476.33 312.272 1485.42 302.421C1494.66 292.418 1505.88 284.689 1519.06 279.233C1532.25 273.626 1547.1 270.822 1563.62 270.822C1575.14 270.822 1586.28 272.868 1597.04 276.96C1607.95 280.9 1617.87 286.887 1626.82 294.919V275.823H1658.19V485.419ZM1626.82 325.153C1617.87 315.303 1608.02 308.18 1597.26 303.785C1586.65 299.39 1575.44 297.192 1563.62 297.192C1551.19 297.192 1540.2 299.39 1530.66 303.785C1521.26 308.18 1513.46 314.166 1507.24 321.743C1501.03 329.321 1496.25 338.338 1492.92 348.795C1489.74 359.101 1488.15 370.164 1488.15 381.985C1488.15 406.233 1494.44 425.556 1507.01 439.953C1519.59 454.351 1538.46 461.55 1563.62 461.55C1575.44 461.55 1586.65 459.352 1597.26 454.957C1608.02 450.411 1617.87 443.136 1626.82 433.134V325.153Z" fill="black"/>
</svg>
