<svg width="1271" height="424" viewBox="0 0 1271 424" fill="none" xmlns="http://www.w3.org/2000/svg">
<path d="M1250.36 226.35C1250.36 226.35 1260.81 196.141 1250.36 184.061C1239.91 171.981 1094.16 171.979 1083.79 184.061C1073.42 196.143 1073.39 323.011 1083.79 335.092C1094.18 347.173 1245.19 341.131 1250.36 335.092C1255.52 329.053 1255.6 286.76 1250.36 280.721C1245.11 274.682 1161.83 274.682 1156.66 280.721C1151.49 286.76 1156.66 304.886 1156.66 304.886" stroke="#5E7181" stroke-width="24" stroke-linecap="round"/>
<path d="M810.618 341.65C798.331 308.34 794.706 191.014 810.618 162.85C826.53 134.686 827.018 182.75 827.018 182.75C885.631 159.314 957.718 166.35 983.118 182.75C1008.52 199.15 983.118 341.65 983.118 341.65" stroke="#5E7181" stroke-width="24" stroke-linecap="round"/>
<path d="M424.242 315.999C410.586 306.084 410.586 177.191 424.242 164.444C435.381 154.046 554.559 162.359 598.353 169.345C608.25 170.923 595.836 58.4341 598.353 61.0448C612.009 75.2088 615.423 304.668 598.353 315.999C581.284 327.33 437.898 325.914 424.242 315.999Z" stroke="#5E7181" stroke-width="24" stroke-linecap="round"/>
<path d="M156.242 315.654C142.586 305.739 142.586 176.846 156.242 164.099C169.898 151.351 316.698 149.935 330.353 164.099C344.009 178.263 347.423 304.323 330.353 315.654C313.284 326.985 169.898 325.569 156.242 315.654Z" stroke="#5E7181" stroke-width="24" stroke-linecap="round"/>
<path d="M282.783 68.2087C289.751 86.466 282.783 95.5942 292.074 104.722C301.364 113.849 336.204 113.851 343.172 104.722C350.139 95.5926 343.172 11.1573 319.945 11.1573C296.719 11.1574 64.4551 -13.9467 34.2608 11.1573C4.06654 36.2614 -14.9376 389.806 15.2568 412.625C45.4511 435.444 446.323 416.877 703.924 416.877C747.521 416.877 723.279 212.192 723.279 184.667C723.279 157.142 703.82 167.151 690.681 167.151C667.455 167.151 700.578 357.823 681.513 357.823C670.628 357.823 363.905 360.723 363.905 360.723C363.905 360.723 117.876 367.971 101.617 345.152C85.3589 322.333 66.7778 113.85 101.617 68.2087C136.457 22.5676 275.815 49.9515 282.783 68.2087Z" fill="#5E7181"/>
<path d="M726.756 109.552C727.604 107.462 727.715 106.164 728.276 103.98C728.689 102.369 729.093 101.495 729.289 99.8433V95.7067C729.289 95.7067 729.085 93.0157 728.783 91.3168C728.467 89.5456 728.199 88.5665 727.685 86.8425C727.277 85.4738 727.073 84.6908 726.503 83.3812C725.873 81.9338 725.418 81.162 724.562 79.8356C723.782 78.6279 723.264 78.0037 722.367 76.8809C721.331 75.5847 720.753 74.8467 719.581 73.6729C718.524 72.6153 717.891 72.0575 716.71 71.1403C715.245 70.0013 714.371 69.4137 712.743 68.5232C711.435 67.8085 710.661 67.482 709.281 66.9192C707.698 66.2733 706.785 65.9656 705.145 65.4841C705.145 65.4841 703.362 64.9375 702.19 64.7243C700.531 64.4225 699.571 64.4025 697.885 64.3866C695.968 64.3686 694.89 64.4824 692.988 64.7243C692.128 64.8338 691.643 64.8879 690.793 65.062C689.791 65.2675 689.241 65.4419 688.261 65.7373C686.923 66.1406 686.179 66.3961 684.884 66.9192C683.502 67.477 682.729 67.8075 681.423 68.5232C680.083 69.257 679.362 69.7315 678.13 70.6337C676.884 71.5465 676.251 72.1454 675.091 73.1664C674.32 73.8449 673.845 74.1842 673.149 74.9392C672.497 75.6472 672.209 76.1119 671.63 76.8809C671.09 77.5971 670.774 77.9902 670.279 78.7381C669.627 79.7237 669.327 80.3183 668.76 81.3552C668.243 82.2995 667.948 82.8276 667.493 83.8034C666.937 84.9965 666.612 85.6683 666.227 86.9269C665.93 87.898 665.86 88.469 665.636 89.4595C665.398 90.5128 665.209 91.0936 665.045 92.161C664.872 93.2849 664.844 93.9349 664.794 95.0534L664.792 95.1157C664.738 96.3344 664.744 97.0204 664.792 98.2393C664.84 99.495 664.882 100.201 665.045 101.447C665.21 102.71 665.339 103.417 665.636 104.655C665.933 105.893 666.124 106.585 666.565 107.779C666.986 108.92 667.288 109.539 667.819 110.625L667.831 110.649C668.492 112.001 668.871 112.762 669.688 114.026C670.784 115.721 671.531 116.591 672.896 118.078C674.158 119.452 674.925 120.175 676.357 121.371C677.679 122.473 678.465 123.042 679.903 123.988C681.089 124.767 681.754 125.216 683.027 125.845C684.607 126.626 685.564 126.925 687.248 127.449C688.752 127.917 689.642 128.107 691.138 128.427L691.3 128.462C692.742 128.77 693.546 129.007 695.014 129.137C696.426 129.262 697.231 129.247 698.644 129.137C700.244 129.013 701.127 128.793 702.697 128.462C704.261 128.132 705.142 127.939 706.664 127.449C708.284 126.927 709.189 126.596 710.717 125.845C712.016 125.206 712.698 124.756 713.925 123.988C715.451 123.031 716.331 122.513 717.723 121.371C719.147 120.202 719.855 119.435 721.1 118.078C722.367 116.697 723.084 115.912 724.139 114.364C725.344 112.596 725.953 111.534 726.756 109.552Z" stroke="#367DCB" stroke-width="8.17333" stroke-linecap="round"/>
<path d="M797.623 69.2819C798.795 70.4558 799.373 71.1937 800.409 72.4899C801.306 73.6128 801.824 74.2369 802.604 75.4446C803.46 76.771 803.915 77.5429 804.545 78.9903C805.115 80.2998 805.319 81.0828 805.727 82.4515C806.241 84.1756 806.509 85.1546 806.825 86.9258C807.127 88.6248 807.331 91.3157 807.331 91.3157V95.4523C807.135 97.1038 806.731 97.9779 806.318 99.5889C805.757 101.773 805.646 103.071 804.798 105.161C803.995 107.143 803.386 108.205 802.181 109.973C801.126 111.522 800.409 112.306 799.142 113.687C797.897 115.044 797.189 115.811 795.765 116.98C794.373 118.122 793.493 118.64 791.967 119.597C790.74 120.365 790.058 120.815 788.759 121.454C787.231 122.205 786.326 122.536 784.706 123.058C783.184 123.548 782.303 123.741 780.739 124.071C779.169 124.402 778.286 124.622 776.686 124.746C775.273 124.856 774.468 124.871 773.056 124.746C771.588 124.616 770.784 124.379 769.342 124.071C767.747 123.73 766.847 123.543 765.29 123.058C763.606 122.534 762.649 122.235 761.069 121.454C759.796 120.825 759.131 120.376 757.945 119.597C756.507 118.651 755.721 118.082 754.399 116.98C752.967 115.784 752.2 115.061 750.938 113.687C749.573 112.2 748.826 111.33 747.73 109.635C746.913 108.371 746.534 107.61 745.873 106.258C745.335 105.157 745.031 104.537 744.607 103.388C744.166 102.194 743.975 101.502 743.678 100.264C743.381 99.0256 743.252 98.3194 743.087 97.0563C742.924 95.8102 742.882 95.104 742.834 93.8483C742.786 92.6294 742.78 91.9434 742.834 90.7247C742.885 89.5677 742.911 88.9147 743.087 87.77C743.251 86.7027 743.44 86.1219 743.678 85.0686C743.902 84.078 743.972 83.5071 744.269 82.5359C744.654 81.2774 744.979 80.6056 745.535 79.4124C745.99 78.4366 746.285 77.9085 746.802 76.9642C747.369 75.9274 747.669 75.3328 748.321 74.3471C748.816 73.5992 749.132 73.2061 749.672 72.4899C750.251 71.7209 750.539 71.2562 751.191 70.5482C751.887 69.7933 752.362 69.4539 753.133 68.7754" stroke="#367DCB" stroke-width="8.17333" stroke-linecap="round"/>
<path d="M820.954 95.5942C820.954 95.5942 885.535 98.2112 885.198 95.5942C884.86 92.9772 884.867 92.1762 884.438 90.0224C883.91 87.3709 883.667 85.8291 882.581 83.3532C881.625 81.1733 880.854 80.0466 879.457 78.1191C878.018 76.1327 877.108 75.0717 875.32 73.3916C873.73 71.8964 872.735 71.1593 870.931 69.9303C868.771 68.4594 867.509 67.663 865.106 66.6379C862.669 65.5986 861.23 65.0584 858.605 64.6963C856.254 64.3718 854.895 64.5399 852.527 64.6963C850.07 64.8585 848.683 65.0058 846.28 65.5405C843.989 66.05 842.712 66.4288 840.539 67.3133C838.45 68.1637 837.312 68.7503 835.39 69.9303C833.439 71.1273 832.329 71.8238 830.662 73.3916C828.922 75.0286 828.153 76.1645 826.779 78.1191C825.41 80.0665 824.659 81.1948 823.655 83.3532C822.798 85.1973 822.414 86.2868 821.882 88.2496C821.365 90.1593 821.134 91.26 820.954 93.2304C820.776 95.1674 820.827 96.2702 820.954 98.2112C821.114 100.672 821.289 102.064 821.882 104.458C822.402 106.553 822.798 107.712 823.655 109.692C824.658 112.008 825.346 113.271 826.779 115.349C828.121 117.295 828.945 118.368 830.662 119.992C832.339 121.577 833.47 122.256 835.39 123.537C837.332 124.834 838.406 125.628 840.539 126.577C842.807 127.585 844.182 127.953 846.617 128.434C848.893 128.883 850.209 128.956 852.527 129.025C855.83 129.123 857.769 129.261 860.969 128.434C864.097 127.626 865.694 126.604 868.482 124.973C871.334 123.304 872.894 122.234 875.32 119.992C877.568 117.914 880.47 114.082 880.47 114.082" stroke="#367DCB" stroke-width="8.17333" stroke-linecap="round"/>
<path d="M960.448 86.1335C959.492 83.9536 958.721 82.8269 957.324 80.8994C955.885 78.9129 954.975 77.852 953.188 76.1719C951.597 74.6767 950.602 73.9396 948.798 72.7106C946.638 71.2396 945.376 70.4433 942.973 69.4182C940.536 68.3788 939.097 67.8387 936.472 67.4765C934.121 67.1521 932.763 67.3201 930.394 67.4765C927.938 67.6387 926.55 67.7861 924.147 68.3207C921.857 68.8303 920.58 69.2091 918.406 70.0936C916.317 70.944 915.179 71.5305 913.257 72.7106C911.307 73.9076 910.196 74.6041 908.529 76.1719C906.789 77.8089 904.217 66.3661 902.843 68.3207C901.474 70.2681 902.526 83.975 901.522 86.1335C900.665 87.9776 900.282 89.0671 899.749 91.0299C899.232 92.9396 899.001 94.0403 898.821 96.0107C898.643 97.9477 898.694 99.0505 898.821 100.992C898.981 103.453 899.156 104.845 899.749 107.239C900.269 109.333 900.665 110.492 901.522 112.473C902.525 114.788 903.213 116.052 904.646 118.129C905.988 120.075 906.812 121.148 908.529 122.772C910.206 124.358 911.337 125.036 913.257 126.318" stroke="#367DCB" stroke-width="8.17333" stroke-linecap="round"/>
<path d="M1038.49 96.5094C1038.49 96.5094 1038.29 93.8185 1037.98 92.1196C1037.67 90.3484 1037.4 89.3693 1036.89 87.6453C1036.48 86.2765 1036.27 85.4936 1035.7 84.184C1035.07 82.7366 1034.62 81.9647 1033.76 80.6384C1032.98 79.4307 1032.47 78.8065 1031.57 77.6836C1030.53 76.3875 1029.95 75.6495 1028.78 74.4757C1027.73 73.4181 1027.09 72.8603 1025.91 71.943M1038.49 96.5094V100.646C1038.29 102.298 1037.89 103.172 1037.48 104.783C1036.92 106.967 1036.81 108.264 1035.96 110.354C1035.15 112.337 1034.55 113.399 1033.34 115.166C1032.29 116.715 1031.57 117.5 1030.3 118.881C1029.06 120.238 1028.35 121.005 1026.92 122.173M1038.49 96.5094L973.993 95.9185M985.559 122.173C984.126 120.978 983.359 120.255 982.097 118.881C980.732 117.394 979.985 116.524 978.889 114.829C978.072 113.565 977.693 112.804 977.032 111.452C976.494 110.351 976.19 109.731 975.766 108.582C975.325 107.388 975.134 106.695 974.837 105.458C974.54 104.219 974.411 103.513 974.246 102.25C974.083 101.004 974.042 100.298 973.993 99.0421C973.946 97.8231 973.939 97.1371 973.993 95.9185M973.993 95.9185C974.044 94.7615 974.07 94.1084 974.246 92.9638C974.41 91.8964 974.599 91.3156 974.837 90.2623C975.061 89.2717 975.131 88.7008 975.428 87.7297C975.813 86.4711 976.139 85.7993 976.694 84.6061C977.149 83.6304 977.444 83.1023 977.961 82.1579C978.528 81.1211 978.828 80.5265 979.48 79.5409C979.975 78.7929 980.291 78.3999 980.831 77.6836C981.41 76.9147 981.698 76.4499 982.351 75.742C983.047 74.987 983.522 74.6477 984.292 73.9691C985.452 72.9482 986.085 72.3493 987.331 71.4365" stroke="#367DCB" stroke-width="8.17333" stroke-linecap="round"/>
<path d="M1052.11 95.5942C1052.11 95.5942 1116.69 98.2112 1116.36 95.5942C1116.02 92.9772 1116.02 92.1762 1115.6 90.0224C1115.07 87.3709 1114.82 85.8291 1113.74 83.3532C1112.78 81.1733 1112.01 80.0466 1110.62 78.1191C1109.18 76.1327 1108.27 75.0717 1106.48 73.3916C1104.89 71.8964 1103.89 71.1593 1102.09 69.9303C1099.93 68.4594 1098.67 67.663 1096.26 66.6379C1093.83 65.5986 1092.39 65.0584 1089.76 64.6963C1087.41 64.3718 1086.05 64.5399 1083.69 64.6963C1081.23 64.8585 1079.84 65.0058 1077.44 65.5405C1075.15 66.05 1073.87 66.4288 1071.7 67.3133C1069.61 68.1637 1068.47 68.7503 1066.55 69.9303C1064.6 71.1273 1063.49 71.8238 1061.82 73.3916C1060.08 75.0286 1059.31 76.1645 1057.94 78.1191C1056.57 80.0665 1055.82 81.1948 1054.81 83.3532C1053.96 85.1973 1053.57 86.2868 1053.04 88.2496C1052.52 90.1593 1052.29 91.26 1052.11 93.2304C1051.93 95.1674 1051.99 96.2702 1052.11 98.2112C1052.27 100.672 1052.45 102.064 1053.04 104.458C1053.56 106.553 1053.96 107.712 1054.81 109.692C1055.82 112.008 1056.5 113.271 1057.94 115.349C1059.28 117.295 1060.1 118.368 1061.82 119.992C1063.5 121.577 1064.63 122.256 1066.55 123.537C1068.49 124.834 1069.56 125.628 1071.7 126.577C1073.97 127.585 1075.34 127.953 1077.78 128.434C1080.05 128.883 1081.37 128.956 1083.69 129.025C1086.99 129.123 1088.93 129.261 1092.13 128.434C1095.26 127.626 1096.85 126.604 1099.64 124.973C1102.49 123.304 1104.05 122.234 1106.48 119.992C1108.73 117.914 1111.63 114.082 1111.63 114.082" stroke="#367DCB" stroke-width="8.17333" stroke-linecap="round"/>
<path d="M1194.11 98.0152C1194.11 98.0152 1129.53 95.3981 1129.87 98.0152C1130.2 100.632 1130.2 101.433 1130.63 103.587C1131.15 106.239 1131.4 107.78 1132.48 110.256C1133.44 112.436 1134.21 113.563 1135.61 115.49C1137.05 117.477 1137.96 118.538 1139.74 120.218C1141.33 121.713 1142.33 122.45 1144.13 123.679C1146.29 125.15 1147.55 125.946 1149.96 126.971C1152.39 128.011 1153.83 128.551 1156.46 128.913C1158.81 129.238 1160.17 129.07 1162.54 128.913C1164.99 128.751 1166.38 128.604 1168.78 128.069C1171.07 127.559 1172.35 127.181 1174.52 126.296C1176.61 125.446 1177.75 124.859 1179.67 123.679C1181.62 122.482 1182.73 121.786 1184.4 120.218C1186.14 118.581 1186.91 117.445 1188.28 115.49C1189.65 113.543 1190.4 112.415 1191.41 110.256C1192.27 108.412 1192.65 107.323 1193.18 105.36C1193.7 103.45 1193.93 102.349 1194.11 100.379C1194.29 98.4419 1194.24 97.3392 1194.11 95.3981C1193.95 92.9369 1193.77 91.545 1193.18 89.151C1192.66 87.0564 1192.27 85.8974 1191.41 83.9169C1190.41 81.6014 1189.72 80.3381 1188.28 78.2608C1186.94 76.3147 1186.12 75.2418 1184.4 73.6176C1182.72 72.0319 1181.59 71.3533 1179.67 70.072C1177.73 68.7754 1176.66 67.9818 1174.52 67.0328C1172.26 66.0242 1170.88 65.6559 1168.45 65.1756C1166.17 64.7267 1164.85 64.6537 1162.54 64.5846C1159.23 64.4862 1157.29 64.3487 1154.09 65.1756C1150.97 65.9838 1149.37 67.0051 1146.58 68.6368" stroke="#367DCB" stroke-width="8.17333" stroke-linecap="round"/>
<path d="M1244.57 67.0697C1242.48 66.2221 1241.19 66.1109 1239 65.5502C1237.39 65.1367 1236.52 64.7334 1234.86 64.5371H1230.73C1230.73 64.5371 1228.04 64.7408 1226.34 65.0436C1224.57 65.3593 1223.59 65.6268 1221.86 66.1411C1220.49 66.5494 1219.71 66.7527 1218.4 67.323C1216.96 67.9533 1216.18 68.4085 1214.86 69.2647C1213.65 70.0442 1213.02 70.5622 1211.9 71.4596C1210.61 72.4955 1209.87 73.0728 1208.69 74.2455C1207.52 75.4182 1207.51 117.964 1208.19 118.735C1208.87 119.506 1209.21 119.981 1209.96 120.677C1210.67 121.329 1211.13 121.617 1211.9 122.196C1212.62 122.736 1213.01 123.052 1213.76 123.547C1214.74 124.199 1215.34 124.499 1216.38 125.067C1217.32 125.583 1217.85 125.879 1218.82 126.333C1220.02 126.889 1220.69 127.214 1221.95 127.599C1222.92 127.897 1223.49 127.966 1224.48 128.19C1225.53 128.429 1226.11 128.617 1227.18 128.781C1228.31 128.954 1228.96 128.983 1230.07 129.032L1230.14 129.034C1231.36 129.088 1232.04 129.082 1233.26 129.034C1234.52 128.986 1235.22 128.944 1236.47 128.781C1237.73 128.616 1238.44 128.488 1239.68 128.19C1240.91 127.893 1241.61 127.702 1242.8 127.262C1243.94 126.841 1244.56 126.538 1245.65 126.007L1245.67 125.995C1247.02 125.334 1247.78 124.955 1249.05 124.138C1250.74 123.042 1251.61 122.295 1253.1 120.93C1254.47 119.668 1255.2 118.901 1256.39 117.469C1257.49 116.148 1258.06 115.361 1259.01 113.923C1259.79 112.737 1260.24 112.072 1260.87 110.8C1261.65 109.219 1261.95 108.262 1262.47 106.579C1262.94 105.074 1263.13 104.184 1263.45 102.688L1263.48 102.526C1263.79 101.085 1264.03 100.281 1264.16 98.8119C1264.28 97.3997 1264.27 96.5952 1264.16 95.1818C1264.03 93.5823 1263.81 92.6994 1263.48 91.1296C1263.15 89.5647 1262.96 88.6841 1262.47 87.1618C1261.95 85.5418 1261.62 84.637 1260.87 83.1096C1260.23 81.8105 1259.78 81.1283 1259.01 79.9016C1258.05 78.375 1257.53 77.4955 1256.39 76.1027C1255.22 74.6788 1254.46 73.971 1253.1 72.7259C1251.72 71.4588 1250.93 70.7422 1249.38 69.6868C1247.62 68.4822 1246.56 67.8736 1244.57 67.0697Z" stroke="#367DCB" stroke-width="8.17333" stroke-linecap="round"/>
</svg>
